<svg xmlns="http://www.w3.org/2000/svg" viewBox="0 0 27.95 23.92"><defs><style>.cls-1{fill:#1e1e1c;}</style></defs><title>LOGO_THE_DOCKS_FAVI</title><g id="Laag_2" data-name="Laag 2"><g id="Laag_1-2" data-name="Laag 1"><path class="cls-1" d="M2.69,0l.08,0,.06.23L2.91.2,3,0,3.18.1l.33,0,.12.08.1-.06.15,0,0,.1V.33L4.1.1,4.33,0l.32,0,.07.23L4.8.21l0-.15H6.56l0,.23.12,0L6.87.06,7,0l.1,0,0,.08L7.48,0l.09,0,.08.08.16,0L7.89,0,8.08.1,8.28,0l.5.08L9,0,9.9.1,10.09,0l.24,0,1,.08.12,0,.08.17.08-.07,0-.12,1,0,.33,0L13,.21l.21-.13h.26l.1.06L13.8,0,14,0l.29.23.16.22,0,.23,0,.1L14.5,1l-.05.27.05.25-.05.26.09.6-.09.22,0,.54-.11.33.08.26,0,.1L14.29,4l-.24.1-.27,0-.25-.06-.16.12-.27,0-.72,0-.2-.08-.86.12-.19-.08-.16,0-.21-.12h-.51l-.49.12-.19-.08-.06.23-.1.08v.39L9.33,5l.06.23,0,.1-.08.08.06.1,0,.23-.06.74.06.24,0,.33-.08.21L9.41,8l-.12.32.06.76-.12.23.18.29,0,.26-.12.19.12.16-.06.1,0,.21,0,.26L9.27,11l.12.16-.06.21,0,.76-.1.22.16.15,0,.1,0,.16-.08.07.12.59-.08.33,0,.2-.12.41.08.19,0,.72,0,.12,0,.22-.08.09,0,.16-.06.27H9.17l-.27.26-.12-.06,0-.08-.14.14-.25,0-.18,0L8,16.28l-.43.14L7,16.4l-.14-.32-.1,0v.24l-.11,0-.2.16-.31,0-.06-.08v-.14l-.1,0-.15.16-.24-.08-.21-.14L5.19,16,5,15.5v-.2l0-.09.1,0L5,15.05v-.33l.07-.24v-2l0-.5.11-.2-.11-.2V9.86l.07-.22-.07-.19,0-.16.08-.1-.06-.25V8.67l.06-.24-.08-.15,0-.78.14-.22-.12-.43-.07-.08,0-.48,0-.1-.07-.12,0-.25.05-.57-.05-.64,0-.1-.37-.29.1-.12-.08,0-.21.16L4,4.18l-.68,0-.63-.08,0-.2-.19.18-.33.08-.26-.06L2,3.81l.06-.08-.12-.2V3.2l-.08,0v.1H1.8l-.16.19.12.08h.15v.16l-.06.08-.09,0-.35.27-.06-.06-.08-.21-.12.07.08.16-.16,0-.35.1-.1-.06L.57,4l-.24.12V4L.06,3.73l.21,0L.2,3.38,0,3.22l0-.68,0-.12.1-.1L.1,2.23H0L.06,2V1.44L0,1,.06.88H.14L0,.61.29.53l0-.14,0-.12.08,0,.1,0L.55.12.78.06V.51L.9.43,1,.06l.54,0,.18.19L2.24,0,2.6.08ZM.84,3.79l.21-.37-.13,0-.1.06-.08.13v.12Zm0-2,0,.07.1,0L1,1.8l-.09,0Zm0-.45L1,1.41l0-.12L1,1.21H.92ZM2,1.46l0-.13-.12-.06H1.68l.08.14.09,0Zm-.21.77H2l0-.14L1.85,2l0,.08Zm.27-.71.14,0-.12-.07Zm.72-.23-.1,0,0,.1.14,0V1.25l-.06,0ZM2.79,4,3,4l0-.14-.06-.11-.12-.06-.08,0,.06.12ZM3,3.14,2.89,3,2.77,3v.11l.1.08ZM2.79.57,3,.64,3,.51l-.14,0Zm0,.39.1.06H3L3,.9H2.87Zm0,.8L2.87,2l.23-.17,0-.24-.13,0-.08.08Zm.08,1L3,2.69V2.42L3,2.3l-.18,0,0,.1-.06.27ZM3.42,1v.07l.11,0,0-.13ZM3.73,2l.1.28.07.37.16-.18,0-.12,0-.25L4,2l-.09,0ZM3.73,3l0,.13.1.06L4,3l-.1,0ZM3.9,1l0-.24,0-.11-.07,0L3.77.66V.78l.06.1Zm-.11,2.5.09,0,0-.12-.09,0ZM4.53,1.6l.15,0L5,1.83l-.08.08H4.8l-.08.32.18,0,.19-.16,0-.22-.37-.4.08-.1,0-.18-.12,0-.11.18Zm.12.92v.35L4.72,3,4.65,3l0,.09,0,.1,0,.1-.08.1.17.09.1,0,.08-.24L4.84,3l.24-.2-.16-.15,0-.12-.1,0Zm0-2.11,0,.1h.2L4.84.41Zm0,3.49.1,0,0-.07V3.69l-.12,0-.06.08ZM5,1.09V.76H4.92L4.8.68l-.06.1,0,.1.2.17ZM5.13,2.5h.14V2.42Zm.14,2.67.08,0,.06-.08-.08-.07ZM5.72,1.5l-.2,0,.06.1,0,.23,0,.41.1.06.22,0V1.83l0-.09H5.66l0-.18.2.08V1.39l.14-.3L6,1,5.91.76H5.78l-.12.39v.26Zm0-1.23,0,.1.2.08H6V.27l-.17,0Zm.1,3.28H5.64l0,.14.1.06.12-.22-.08-.06Zm-.14.94h.1l.08-.12-.12,0Zm.12-.21,0-.14L5.68,4l0,.12ZM5.68,6.87,5.74,7l.1,0,.09,0,0-.1-.12,0Zm0,8.26.16,0V15l-.08,0Zm.08-12.3h.12L6.05,3l.08-.24-.08-.07L6,2.77l0-.08-.09,0H5.74v.09Zm0,3.85.12,0,0-.16-.12,0Zm0,8.86.06.21H6l.1,0,.06-.07-.06-.1-.19,0Zm0-2.15.06.1.29.21,0-.15-.08-.12-.06,0,0-.12H5.88ZM6,3.22l0-.1L5.82,3l.06.15ZM5.88,14.09l.09,0L6,14l-.1,0ZM6,8.82l.1,0V8.65H6l0,.1Zm0,.39,0,.2.12-.08,0-.14ZM6,2.44l.1,0V2.32l-.1,0Zm.2,1.19.12,0,.05-.16-.11.06ZM6.5,1.09l-.08.2.1,0,.31-.12,0-.45-.12,0L6.54.94l.1.25-.08,0ZM6.72,3H6.46L6.4,3.1l.16,0,.12.06,0,.3,0,.09.13.06-.06-.51ZM6.52.74l.1-.08L6.54.61ZM7,3.06l0-.15-.12-.08L7,2.65l0-.17-.14,0,0-.08,0-.29.06,0L7,2.21l-.12.07H7l0-.11L7,1.91V1.8l.1-.08L7,1.64l0-.27-.12-.06-.13.06,0,.27-.05.21L6.56,2l.16.51-.16.08v.09h.1L6.75,3l.08.08ZM6.54,4.18l.18,0,0-.08.16.06v-.2H6.64l0,.16Zm.21,5.58-.23.06.1,0-.1.23.06.1.12.06.15-.14L7,9.76l-.12,0V9.68l0-.1L7,9.43l-.26.08-.09.19Zm-.21,2.73H6.6l0-.07-.1,0Zm.29-4-.08-.21-.19-.1.08.21.08.06ZM6.6,5.17l.08.2v.12l.11,0L7,5.54l-.1-.35L7,5H6.87l-.15,0Zm0,1h.15l0-.12H6.62v.12Zm0,1.13.06.08.21-.12V6.87H6.68l0,.14,0,.23Zm0-2.67.27,0v-.2H6.7l0,.1Zm.19,4.49,0-.12-.08-.1-.15-.06.06.24Zm-.19,2.61h.11l0-.12Zm.08,2.83h.37l0-.12L7,14.41l-.35-.1v.15Zm0-.53.25.06.12,0,0-.15-.2-.12,0-.1-.15,0-.06.08v.1Zm0-2.69.15,0L7,11.13l-.1-.06-.18-.31-.07-.08,0,.1,0,.48Zm.11,3.46-.13,0,0,.11Zm0,.68.08-.29-.16,0-.07.11,0,.1ZM6.72,5.68v.1l.09,0,.12,0,0,.15L7.07,6V5.84L7,5.78l0-.12H6.79ZM6.87,8l0-.09-.08,0Zm0,7L7,15,7.07,15,7,14.89Zm.2-4.6-.12,0,0,.07Zm.06-5.61V4.67L7,4.61,7,4.7Zm.58,7.67,0,.1.12,0,.08.06-.2.16-.12,0V13l0,.08,0-.1-.06.28,0,.11.08.1,0-.1,0-.15,0-.1,0,.1.08.05v-.11l0-.08,0,.16,0-.1L7.91,13l0-.18.05-.39,0-.07,0,.09-.1,0ZM7.5,5.6v.12l0,.08.22.06,0,.11.15.1L8,5.8l0-.1-.12.06.08-.37-.08-.22-.1-.06,0,.26,0,.12-.08.07Zm0,6.25,0-.1.1,0-.19,0v.12Zm.24-9.59-.16.06-.08.24,0,.08,0-.16.06-.08.16,0,0,.27.06.1L8,2.75l-.09-.51,0-.31-.11,0L7.79,2l0,.12Zm-.18-.48.12,0-.08-.28.24-.11,0,.08.07,0,0-.11-.35-.1-.06.39ZM7.53,3.55l.75.22.07-.22.1,0,.06.06-.06.1.06.12.14-.26V3.47h-.1L8.47,3.4l-.39.15-.27,0-.1,0,.06-.07,0-.12-.1-.1-.1,0v.28Zm.26,10.72H7.71l-.1.08,0,.23-.1,0v.51l.2.08,0-.12,0-.41,0-.1.12-.06-.08-.09v-.08L8.06,14,7.91,14l0-.14-.14-.06,0,.12.08.31Zm-.2-7.91.12,0,.1.24L8,6.5l-.23-.25-.12,0Zm0,9.45,0,.29-.06.1.12,0,.06-.08v-.31Zm.2-4.76.11-.1-.07-.06-.24,0,.06.12ZM7.67,4.29l0,.18.08.1h.15V4.39l0-.11-.16,0Zm0,2.76,0,.09.12,0L7.89,7,7.77,7Zm0,.82,0,.15.1,0V7.83Zm.06,4.35.14.06,0-.2-.12,0Zm0-11.07.19,0,0-.09L7.85,1l0,.05Zm.1,12.3-.1,0,0,.08ZM7.79,7.67l.08-.06-.08-.06Zm0,1.58H8l0-.09H7.87Zm0-.49h.07v0H7.87ZM8,13.31,8,13.25l-.1,0ZM8,9.74l0-.12H8Zm0,6.42L8,16v.11ZM8.18,4.28v.11l.16,0,.07-.06-.09-.07Zm.14-1.92,0-.1V2.15l-.11,0,0,.1,0,.09Zm-.1.78.08-.06L8.22,3Zm.27,8.57.12,0,.06-.09,0-.1h-.1l-.06.08Zm.14-4.6,0,.13-.12.22v.15l.16-.19.11-.35Zm.1,2-.14,0-.1.24.2,0V9.25l.09-.15,0-.16-.07-.1,0,.1,0,.12Zm-.1.74V9.7l0-.12-.08.1,0,.12Zm-.1-2.05.08,0,.06-.06-.12,0,0-.08Zm0-2.74,0,.12.1,0,0-.12-.06-.07Zm0-2.53.16,0,.05.27-.19.08V3l.08.21.06.06.05-.22L8.86,3,9,3.06h.1V2.77L8.8,2.5l0,0,0-.12-.07-.06-.08.08,0,.08Zm0,1.89.1,0,0-.12.1,0,.08-.07.12,0L9,4.1,8.8,4l0-.12H8.73l-.14.45Zm0,.33.08,0H8.9l0-.1.1,0-.08-.19H8.82l0,.12-.09.06ZM8.78,11l-.19,0,0,.12.12,0ZM8.63,1v.72l.21,0L9,1.48l-.12,0-.1-.17,0-.12L8.9,1,8.82.86,8.75.92Zm0,4.76.19.06,0-.2-.1,0Zm.06,4.78.09-.1-.13,0Zm.07,4.55H8.9l-.08-.25v-.12l-.07.08v.29Zm0-11.52.24,0,.19-.08,0-.13-.05-.08h-.2l-.14.21Zm0,4.49L8.86,8l-.1-.07Zm0,2,.08,0,0-.11-.08,0Zm0-2.5H8.9V7.5H8.78Zm0-2.1.14,0,0-.12-.16,0Zm0,6,.16,0-.08-.06Zm0,.27H8.9v-.06H8.82Zm0-9.76.06.23,0,.12.26,0,.05.06,0-.12,0-.21.06-.08-.1,0L9,2.09ZM9,11.32l0-.12-.08,0ZM9,5.06,9,5,9.1,5l0-.16H9V5ZM9,1.87l.1-.07H9.06Zm.1,9,0,0-.07-.05Zm0-9.39.16.16h.12L9.39,1.5l-.12-.07Zm0,2.37.24.11,0-.15-.18,0Zm0,7.43,0-.15H9.17Zm.2-8.57h.23l-.15-.11,0-.1,0,.08Zm.27.37L9.7,3l-.1-.1,0,.2ZM9.72,2l0-.12-.1-.06,0,.12Zm0,.39h.06V2.32H9.72ZM10,2l.14,0,0-.09L10,1.8Zm.88.69.06-.08.1,0,0-.1-.23-.08.05.24Zm.12-2,0,0L11,.53Zm0,.65H11L11,1.19Zm1.68,1.38.1,0,0,.08.11,0-.11-.31.09,0,.06-.1-.09.06-.14.16Zm.23-1.38,0-.16h-.11l0,.12Zm0,.76H13l0-.08-.08,0Zm.77.47.19-.06-.16-.14-.05.1Zm.13.51h.1l-.1-.1Zm.14,1L14,4l0-.1-.14,0Z"/><path class="cls-1" d="M23,7.85l0,.12.19.16.28-.06.05.08V8.3h.26l0,.1.15,0,.26.06.41.27.11,0,0,.16,0,.07L25,9l.17.21.39.33.24.12-.06.23.06-.11.31.41.39.35.06.25.37.61,0,.23,0,.16.08.08h.14l.11.48.24.34,0,.27.17.41,0,.21.12,1,.08.19-.08.39.08.36,0,.19.06.25v.26l0,.1-.1.09.08.22,0,.45-.1.52,0,.41-.12.06-.09.2,0,.54-.1.08-.08.24-.08.09,0,.26-.33.64-.09.37-.22.2-.14.21,0,.16h-.19l-.23.43-.18.15-.33.16,0,.2-.24.11-.82.67L24,23l-.23.08L23.61,23l-.11.06-.16.25-.82.26-.1.07-.09,0-.67.07-.23-.05-.18.15-.7.06-.12,0-.08-.1v-.1l-.07,0-.14.2-.27-.08-.1.08-.1,0-.47-.06-.1.06-.07-.1-.12-.06-.16.2H18.6l-.49-.28-.18.16-.58.12-.06-.24-.08-.05-.1,0,0,.22-.23-.06h-.21l-.1.06-.14,0-.08-.08-.11.06-.59,0-.23.12-.24-.06-.08-.08-.09.08-.18,0-.43-.1-.94.06-.43,0-.05-.08,0-.15-.12,0-.06-.06,0-.24v-.39l-.06-.21.1-.8-.08-.53.08-.52-.06-.2.06-.72,0-.26,0-.09.08-.06-.08-.24-.06-.52v-.53l.16,0,.08.06.05-.08,0-.06h-.1l-.16-.49.06-.21,0-.61.06-.09-.16-.14,0-.26,0-.91.16,0-.2-.35.08-.26,0-.25-.17-.94.07-.35-.06-.49,0-.33.06-.1-.1-.48v-.28l.06-.25-.06-.2v-.5l.07-.36L12.55,10l0-.8,0-.2.09-.17-.06-.49.06-.53.18-.29.76-.18.29.08.24-.06.27,0,.76,0,.51-.07.23.17.1-.06.39,0,.22-.08.6.08.24-.08.41.12.48-.08.28,0,.25-.08.25.12.12-.06.63,0,.07-.08.24.12.25-.06.26.06.48,0,.2.12h.7l.41.12.24.13.11-.06h.1ZM12.72,12.64l.24,0-.06-.12-.12,0Zm.16,10.73,0,.1.08.12.25-.12.06-.1-.1-.06H13Zm0-12.55.27,0V10.6l-.1,0-.09.19Zm.08-.35,0-.24-.07-.07,0,.27Zm0,.66.09-.1,0-.11L13,11Zm.15,4.69.14,0,.12-.24-.2-.15,0-.12.1-.23L13.17,15l-.06.08-.08.25,0,.39Zm.08-7.42-.08-.12,0,.1Zm-.12,3.22.2-.18-.06-.07-.12,0,0,.15Zm.2.76-.08-.31h-.1v.16l.06.11Zm-.2,5.15.08,0,.1,0,0-.09-.12,0Zm0,1,.1,0,0,.23.12,0,.08-.11-.08-.22v-.12l-.18,0,0,.08Zm.06-5.23.1-.08-.06-.1,0,.1Zm0,9.6.12,0v-.23l-.12.08,0-.08,0,.12Zm0-13.54.19.05-.05-.13L13.4,9l-.09,0-.08.23Zm0,.91.14,0V10.2h-.1Zm.12,1.64,0-.08h-.08l0,.07Zm0,4-.08.08,0,.12.08.1,0-.24Zm.06.69-.1,0,0,.08Zm-.06-2.23.23-.06,0-.15-.08-.08-.11.15Zm0,5.31,0-.12-.06-.05,0,.09Zm.52-8.82,0,.19L14.2,11l.12,0,0-.23-.1-.06-.17,0,0,.16-.1,0Zm0,6,.08,0,0-.1h-.12Zm0,3.49.26.24,0-.31-.1-.06-.06.07Zm0-6.3H14l0-.1,0,0L14,14,14,14l0,.1Zm0,.39v.15l.08.06.06-.09.29-.24v-.1l-.11,0-.18.16ZM14,17.3l-.1,0,0,.21.06.08.12-.27v-.14l.13,0,.1-.06L14.09,17,14,17.2ZM14,21.71l0-.08-.06-.05,0,.07Zm0-9.07v.17l.12.24.19-.12.18-.22,0-.07,0-.12-.19-.1-.14.2Zm.31,6.09-.19.15v.26l.1.31-.22-.1,0,.12.26.15.11,0,0-.43.1-.62-.21-.16-.08,0,.06.06,0,.12Zm-.13,2.18-.18,0L14,21ZM14,18.35l0-.09,0-.1-.1,0,0,.12Zm0-9.66.12.06.09-.06L14,8.59Zm.1,6.17.1.55-.12,0L14,15.6l.23.08.1,0,0-.1,0-.54,0-.1-.08,0ZM14,16.42v.08l.06.08H14l0,.21.19,0,.12-.1v-.15l-.06-.1-.09-.06Zm.23-5.8,0-.11,0-.12-.07-.08-.12,0v.12l.14.18Zm.06,1.23,0-.31-.23,0,.08.26V12l-.12.23.06.08,0-.17.07.06.28,0,0-.26,0-.21.08.11,0-.29-.08-.1h-.1l.06.28Zm0,4.42v-.1l-.06-.1L14,15.91v.18l.19.14Zm-.13-3.09.05.1,0,.17-.11,0-.06.06.06.1.07,0,.06-.08.08,0,.06-.27-.14-.22Zm0-3.49.07-.1-.15-.23,0,.25Zm-.08,11.89.27-.08,0-.26.14-.11L14.3,21l.06-.1-.1-.11-.15.72Zm.11-11.72-.07-.11,0,.09Zm0,4.14.11.08.2-.08v-.27h-.35l0,.15Zm.11,6.23V20h-.17l0,.12Zm0-2.29,0-.31h-.1l0,.12v.16Zm-.11,4.9.09,0,0-.12h-.15v.15Zm0,.53.07,0,0-.06-.08,0Zm.07-.8.08-.06,0-.15-.08-.06-.08,0v.11Zm0-13.45.08-.06,0-.13-.1,0,0,.07Zm.06,2.19,0-.12-.06-.06-.06.12Zm0,10.6,0-.12-.08-.06,0,.12Zm0-11.52h.12l-.08-.12Zm.35,13.27.1,0,.08,0-.1-.05ZM15,9.59l-.08-.12-.08.08,0,.1.06,0Zm-.08,2.3.11,0,.06.06-.21.32.13,0v.11l0,.12.14.06.1-.08.08-.53-.1,0,.08-.33-.06-.25-.08,0-.1,0,0-.12h-.13l0,.18,0,.11-.1.22v.1Zm0,.65.08,0-.08-.12Zm.45,2.14-.06-.33,0-.15-.12.06-.16.19-.11,0,0,.12.08.37L15,15l-.08.09.06.12.09.08.16,0,0-.12L15.14,15l.2-.14-.06-.1Zm-.45,4.46.15,0L15,19l0-.1-.1,0V19Zm0,1.71V21L15,21l0-.16.11-.08Zm.08-4.7.19.08-.1.25.06.18.22,0,.09-.28-.07-.06,0-.09,0-.37.13,0v-.1l-.07,0-.06-.1-.08,0h-.16l-.06.06-.09-.06,0,.45Zm.37-2.56,0-.1L15.28,13l0-.28-.26,0-.09,0v.15L15,13l0,.09.13,0v.26l.06.13Zm-.37.55.19,0,.08-.22v-.15H15.1L15,14Zm0,2.59,0-.11L15,16.56v.12Zm.09-8.31-.09,0,0,.1H15l0-.07ZM15,9.16v.12l0,.08.16,0,0-.1-.08-.08Zm.07,1.25.14.14-.06.23-.14.16v.11h.09l.12.08.1-.08-.06-.33.06-.25-.1-.06,0-.1.06.06,0-.12,0-.07-.2.07Zm.08,11.26-.06.24.06.33.2.21,0-.48.06-.12-.06-.12L15,21.42l0,.12.06.06ZM15,19.84l0,.25.08.06.12,0,0-.61-.12.08,0,.1Zm.06-11.07.1,0-.08-.12Zm.06,1,.08-.17-.12,0,0,.12Zm0,2.35.06.09-.08.06Zm0,5.15.2-.12,0-.09L15.2,17l-.12.21Zm0,.68.24,0-.08-.39h-.16l0,.26Zm.24,1,0-.37-.24-.08,0,.25.12.2Zm-.18-4.45.08.1,0,.07H15.1l0-.09Zm0,4.8.12.06.16,0,0-.1-.1-.06-.08,0Zm.12-10.93h.08l0-.1h-.06Zm0,14.21.08.1-.08.19h.08l.08-.06.09-.25-.15-.06Zm0,.76.06.12.12,0-.06-.16Zm0-2.24.08,0-.08-.06Zm.12-8.53,0,.09.07-.06ZM16,10.9l-.1,0-.08,0,0,.11h.08l.18-.19,0-.16-.06-.08h-.16l0,.14Zm-.18-1.39.12.08.12-.27h-.12l-.06.09Zm.08.39V9.79l-.08,0,0,.09Zm-.08,5.18,0,.11.12.06.12-.19.1,0,0-.1-.08,0,0,.1-.1,0Zm0,5.17.06.1.16,0,0-.26-.1.1Zm0,.54,0,.12.1.2v.15l.08.08.1-.45,0-.11-.06,0Zm0-9,0,.11,0,.1.16.14.14,0,.07-.26,0-.25-.2.08Zm0,3.8.08.1L16,16l.1.08,0-.21.13-.33-.07-.08h-.1l-.12.08ZM16,23.08,16,23l0-.12-.12,0,0,.22Zm.12-11.54v-.43l-.16,0-.06.28,0,.11.06.06Zm-.2,1.6.12-.06.14.12,0-.15L16.06,13,16,13ZM16,13l0-.2-.1.1Zm0-4.1.08-.18h-.16v.12ZM16,17.09l.2.05.07-.29h-.15L16,17Zm0,2.77.23,0,0-.16-.1,0-.1.08Zm0-2.5,0-.08v.25l.08.16.1,0,0-.12-.06-.25-.06,0ZM16,19l.12,0v-.25l-.08-.06-.08.23Zm.14-9.14h.07l-.05-.21-.1,0,0,.12Zm-.1,3.91.08,0,.06-.1-.1,0Zm0,3v.08l.06,0,0-.07Zm.06-.19h.11l-.11-.08Zm.19,2.89-.06-.08-.11,0,.06.12Zm-.19,2.69h.08l0-.11h-.11Zm.23-12.71V9.2h-.1v.16Zm4.39,2.23-.11.08h-.16l-.23-.1-.12-.1-.31.14-.49-.06-.51,0-.39.08-.1-.06-.23,0-.63.06-.13,0-.43.37-.06.12,0,.47-.08,1.3.08.65-.08.27.08.22,0,1,.06.39-.12.26.08.48-.08.82,0,.26.08.21-.08.1,0,.33-.06.08,0,.16.1.25.17.22.2.13.29.16.49-.12.19.12.34-.08.76.08.08-.08.27,0,.23.1.45-.16,0,.14.06.1.12-.26h.27l.26-.06.6-.31.37,0,.31-.39.51-.37,0-.15.26-.41v-.16l.23-.08-.06-.23.2-.3,0-.66.09-.23,0-.45.08-.37-.08-.16V15l-.05-.22.05-.27-.13-.2,0-.19-.1-.08-.12-.22L23.07,13h-.22l-.19-.16-.35-.39-.1-.27-.16,0L22,12.07l-.19,0L21.52,12l-.35-.31-.21-.1,0,.08,0,.06-.12,0Zm-3.59-2.5-.12,0L17,9.1l-.1,0,0,.2.19-.08h.12l0-.35,0-.12-.06.1v.25ZM17,20.56l0-.12-.1-.06,0,.12Zm.06.27h.13l-.08-.09Zm0,1.6h.09l-.06-.15Zm.21-12.66,0-.1-.16,0,.06.14Zm-.16.72.1-.06.12-.25L17.19,10l-.12,0,0,.35Zm0,.47.1-.06,0-.12-.06.08Zm.06,11.86h.12l0-.09-.06-.06Zm0,.47,0-.09,0-.08,0,.1Zm.55-14,.19,0-.06-.1,0-.18h-.1Zm.1.52.05.12-.07.22.05.13.12.06v-.12L18,10.2l.12,0,0-.12.17-.33-.17-.14-.18.21Zm.07,1.35.24,0v-.12l0-.08L18,11l-.06.08Zm.39,10.35,0-.12L18,21.26l0,.1.2.12ZM18.07,9.39v.06l.06,0,0-.08,0-.05Zm0-.46h.08V8.85h-.08Zm0,11.59.17,0-.09,0Zm.17,2.62-.11-.1,0,.08ZM18.19,9.2h.07V9.14h-.07Zm.48,1.17h.14l0-.14-.08-.05-.06.07Zm0-.45.1,0,0-.12-.08-.05Zm.1-.27.1.08.12,0,.09-.08-.25-.08Zm.06,11.09,0-.16-.1.06ZM18.83,9H19l0-.16-.06,0Zm0-1,0,.27.06.1.12,0V8.26l0-.11,0-.12L19,7.91Zm.35,1V8.81l-.08-.08,0,.1,0,.12Zm-.08,12.38.1-.06.08-.25H19.2l-.08.08,0,.09Zm0-.74h.08l0-.06-.12,0Zm.08,2.85,0-.12-.06,0Zm0-14h.1l0-.06h-.16v.06Zm.57,0,.07,0,.18-.06,0-.15L19.81,9l0,.12.08.18Zm0,.39H20l.08-.1-.12,0Zm0,.41H20l.06-.06.06-.24-.1,0L20,10l-.08.08Zm0,1.18v0l.07,0,0-.06ZM20,20.52l0-.08-.07,0,0,.1ZM20,8.91V8.79l-.12-.06,0,.12Zm.14,1.91-.06-.12,0-.33-.24,0,0,.29.06.2.06,0ZM20,8.42l0-.1-.08,0Zm0,14.15h.28l0-.16-.2-.15-.08.21Zm.37.41,0-.1-.07,0V23Zm.08-2.26-.12,0,.06.08Zm.43-11.95,0-.16-.08-.07-.06.13Zm0,14.21v-.12l-.06-.05,0,.11ZM20.8,9.32l.08,0,.06-.06-.1,0Zm0,1.09.1.14-.08.15.06.08.08,0,0-.1.17-.17H21l0-.1h-.14Zm0,11.13v.09l.06.12.1.08.08-.2v-.11l-.12,0ZM20.9,9.9l0,.14.16.23.05-.11,0,.07,0-.25.08-.12-.11-.11L21,9.82ZM21,21.19l.09-.16v-.12l-.23-.1,0,.32ZM21,22l0,.08.06,0,0-.11-.12,0Zm.06,1V22.9h.11l0-.13-.11,0,0,.09,0,.12Zm0-13.55.1-.06,0-.09-.06-.26L21.13,9l-.07.26,0,.12ZM21.8,9l.12,0,0,.1.1,0,.08-.25L22,8.81l-.15.08Zm0,1.12,0,.15,0,.67,0,.09.07-.09.12-.49v-.37l-.17,0Zm.1-.26h.19V9.65l-.12.1Zm.17,2.05L22,11.83l.08-.19h-.16l0,.27ZM22,21.19l.24,0v-.09l-.1-.24.06-.11-.08-.1-.16,0,.08.43Zm.69-.4.11.1.06.39.12,0V21.2l.08-.19L23,20.89l0-.1.06-.11-.16.06-.06.07Zm0-10.89.23,0,.1-.17,0-.14-.12,0-.18.18Zm.07,10.23.12.08.18.19,0-.15,0-.24-.18-.15-.1.15Zm0-10.95.16.18.1,0V9.08L23,9h-.1v.09Zm0-.29L23,9V8.73l-.12.06Zm0,13.49.24-.08,0-.12,0-.27,0-.1H23l.06.12-.12.31Zm.28-11-.24-.05,0,.09.08,0Zm-.2.94.12-.08,0-.15H23l0,.1Zm.16-1.21V11H23l0,.12Zm.66,8.16v.31l.06.24.12,0,.05-.1-.05-.22,0-.15.12-.2,0-.15-.12,0-.11.15Zm0,1,.27,0,0-.18-.15,0-.08.06ZM24,17.89,24,17.81l-.09,0,0,.12.08.05Zm-.17.78.08.11h.19l0-.23-.21,0Zm0-.37v.09l.11,0,0-.19ZM24,11.19l0-.1L24,11l0,.14Zm-.07,2,.13-.1L24,12.85l.12,0,0-.08-.06,0-.08,0-.05.33Zm0-1.29L24,12l.06-.1-.1,0Zm.11,2.66v-.16H24v.1Zm0,6.36.08-.06,0-.11,0-.3,0-.07-.08.05,0,.1,0,.27Zm.06-9.37,0-.12H24l0,.1Zm0,10.31-.16,0,.06.1Zm.18.78h-.18l0,.1h.1ZM24.67,11l.11,0v-.1l-.17-.12v.18Zm.08,3.2V14L24.67,14l0,.1,0,.08Zm0,.6.09,0-.19.14,0,.19.15,0,.18.16,0,.23-.06.06,0-.06-.08,0,0,.16-.06,0,0,.12.05.07.12,0,0-.11.14,0,0-.08,0-.12.09-.06L25,14.7l-.27,0,0,.09Zm.05-2.91-.09,0,0,.08Zm-.09.61.15.06.28,0,0-.28,0-.27H25v.16l-.2.27Zm.07,1.91v-.12l-.07,0v.11Zm-.07,3h.15l0-.16-.05.06Zm.23-5.9.06-.08.06-.23-.12,0-.08,0-.09.23v.12l.07,0Zm-.08,6.23h-.09l0,.16v.25l.28-.1,0-.08,0-.23,0-.1.1-.25-.08-.06-.22.23Zm-.06.45.1.19,0,.12-.14,0v.2l.2-.16.2-.35,0-.08-.22.06Zm.06,1.09.12.2-.2,0,.08.27.1.08.1-.06,0-.14L25,19.43l0-.35L25,19l-.1.1Zm-.08.84,0,.16.08.1.1-.28-.1-.08Zm0,.68H25l0-.11-.06-.06-.1.06Zm0-11.55H25l-.12-.18Zm.14,7.06-.12,0,.06.07ZM25,15l0,.08h-.12l.06-.06Zm-.16,1.75.18.16.17-.16,0-.11-.07-.06-.2.12Zm0-3.7,0,.09h.12l0-.09-.1,0Zm.16,3.22.12-.06v-.08l0,0L25,16l-.1,0,.1.08Zm-.12-2.42.1-.06.06-.1,0-.16H25l0,.2Zm0,7.18v.1l.08,0,.06-.2ZM25,14.31l0,.2h.1v-.2Zm.27.61,0-.22-.08,0,0,.21Zm.37,0,.08-.06-.12,0Zm0,3.08,0,.24,0,.07h.2l0,.28.14.45-.18.11,0,.1.1.06.23-.1,0-.11v-.49l-.17-.49,0-.25.1-.22,0-.12-.08-.07H26l-.09-.43,0-.3-.26,0-.1,0,.18.16-.06.25-.06.06.2.16.08,0-.28.52Zm.24,2.23-.14,0,0,.1ZM26,13.83v-.1l-.22,0,0,.1.08,0Zm-.21.41h.1l0-.1Zm.25,2.53.06-.11-.08-.1,0-.1.14-.53V15.8l-.23-.08-.1.21,0,.24,0,.37.12.19Zm-.19,2.91.08,0,0-.19-.14,0Zm0-7.77.1,0,.05-.07-.17,0Zm0-.31.19,0L26,11.41l-.09,0Zm.23.64-.06-.09-.11,0,0,.1.07,0ZM26,13.42l.11,0,0-.2-.15,0Zm0,.68h.09V14H26Zm0,1.4.12,0,0-.16-.14,0,0,.12Zm.08-.44.08-.16-.1,0,0,.1Zm.71-1.7,0-.12-.08-.08,0,.18ZM27,16l-.1-.23.18,0v-.23l-.26,0-.15.49v.37l.12,0,.07-.24Zm0,1.14-.06-.49-.17-.3,0,.26,0,.37.15.14Zm-.19-2.5.07.33.1,0,.18-.16,0-.27-.22.08Zm.09-.28,0-.17,0,.1Zm.2,1.78,0-.08h-.18l.1.1Zm.49,1.85,0-.07-.08,0Z"/></g></g></svg>