<?xml version="1.0" encoding="utf-8"?>
<!-- Generator: Adobe Illustrator 22.0.0, SVG Export Plug-In . SVG Version: 6.00 Build 0)  -->
<svg version="1.1" id="Laag_1" xmlns="http://www.w3.org/2000/svg" xmlns:xlink="http://www.w3.org/1999/xlink" x="0px" y="0px"
	 viewBox="0 0 28.3 28.3" style="enable-background:new 0 0 28.3 28.3;" xml:space="preserve">
<style type="text/css">
	.st0{fill:#1E1E1C;}
</style>
<title>LOGO_THE_DOCKS_FAVI</title>
<g id="Laag_2_1_">
	<g id="Laag_1-2">
		<path class="st0" d="M2.9,2.2L2.9,2.2L3,2.4l0.1,0l0.1-0.2l0.2,0.1h0.3l0.1,0.1l0.1-0.1h0.2v0.1v0.1l0.2-0.2l0.2-0.1h0.3l0.1,0.2
			l0.1,0V2.3h1.8v0.2h0.1l0.2-0.2l0.1-0.1h0.1v0.1l0.4-0.1h0.1l0.1,0.1H8l0.1-0.1l0.2,0.1l0.2-0.1L9,2.3l0.2-0.1l0.9,0.1l0.2-0.1
			h0.2l1,0.1h0.1l0.1,0.2l0.1-0.1V2.3h1h0.3l0.1,0.1l0.2-0.1h0.3l0.1,0.1L14,2.2h0.2l0.3,0.2l0.2,0.2v0.2V3l0.1,0.2l-0.1,0.3
			l0.1,0.2L14.6,4l0.1,0.6l-0.1,0.2v0.5l-0.1,0.3l0.1,0.3V6l-0.1,0.2l-0.2,0.1H14l-0.2-0.1l-0.2,0.1h-0.3h-0.7l-0.2-0.1l-0.9,0.1
			l-0.2-0.1h-0.2L11,6.2h-0.5L10,6.3L9.8,6.3L9.7,6.5L9.6,6.6V7L9.5,7.2l0.1,0.2v0.1L9.5,7.6l0.1,0.1V8L9.5,8.7l0.1,0.2v0.3L9.5,9.5
			l0.1,0.7l-0.1,0.3l0.1,0.8l-0.1,0.2l0.2,0.3v0.3l-0.1,0.2l0.1,0.2l-0.1,0.1v0.2V13l-0.1,0.2l0.1,0.2l-0.1,0.2v0.8l-0.1,0.2
			l0.2,0.1v0.1V15L9.5,15l0.1,0.6L9.5,16v0.2l-0.1,0.4l0.1,0.2v0.7v0.1v0.2l-0.1,0.1v0.2l-0.1,0.3h0l-0.3,0.3L9,18.5v-0.1l-0.1,0.1
			H8.6H8.4l-0.2-0.1l-0.4,0.1l-0.6,0l-0.1-0.3H7v0.2H6.8l-0.2,0.2H6.3l-0.1-0.1v-0.1H6.2L6,18.6l-0.2-0.1l-0.2-0.1l-0.2-0.2
			l-0.2-0.5v-0.2v-0.1h0.1l-0.1-0.2v-0.3l0.1-0.2v-2v-0.5L5.4,14l-0.1-0.2v-1.7l0.1-0.2l-0.1-0.2v-0.2l0.1-0.1l-0.1-0.2v-0.3
			l0.1-0.2l-0.1-0.1V9.7l0.1-0.2L5.3,9.1L5.2,9V8.5V8.4L5.1,8.3V8l0.1-0.6L5.1,6.8V6.7L4.8,6.4l0.1-0.1H4.8L4.6,6.5L4.2,6.4H3.5
			L2.9,6.3V6.1L2.7,6.3L2.4,6.4L2.1,6.3L2.2,6l0.1-0.1L2.1,5.7V5.4H2.1v0.1H2L1.8,5.7L2,5.8h0.1v0.2L2,6H2L1.6,6.3L1.5,6.2L1.5,6
			L1.3,6.1l0.1,0.2H1.3L0.9,6.4L0.8,6.3L0.8,6.2L0.5,6.3V6.2L0.3,5.9h0.2L0.4,5.6L0.2,5.4V4.8V4.6l0.1-0.1V4.4H0.2l0.1-0.2V3.7
			L0.2,3.2l0.1-0.1h0.1L0.2,2.8l0.3-0.1V2.6V2.5h0.1h0.1l0.1-0.1L1,2.3v0.4l0.1-0.1l0.1-0.4h0.5l0.2,0.2l0.5-0.2H2.9L2.9,2.2z M1,6
			l0.2-0.4H1.1L1,5.7L0.9,5.8v0.1L1,6z M1,4L1,4l0.1,0.1L1.2,4L1,4L1,4z M1,3.6l0.2,0.1V3.5V3.4H1.1L1,3.6z M2.2,3.7V3.5L2.1,3.5
			H1.9L2,3.6H2L2.2,3.7z M2,4.4h0.2V4.3L2,4.2v0.1L2,4.4z M2.3,3.7h0.1H2.3L2.3,3.7z M3,3.5L3,3.5L2.9,3.6H3L3,3.5L3,3.5L3,3.5z
			 M3,6.2h0.2V6.1L3.1,6L3,5.9H2.9L3,6L3,6.2z M3.2,5.4L3.1,5.2H3v0.1l0.1,0.1L3.2,5.4z M3,2.8l0.2,0.1V2.7L3,2.8L3,2.8z M3,3.2
			L3,3.2l0.2,0.1V3.1L3,3.2L3,3.2z M3,4l0.1,0.2L3.3,4V3.8H3.2L3,4L3,4z M3.1,5l0.1-0.1V4.6V4.5H3v0.1L3,4.9L3.1,5z M3.6,3.2
			L3.6,3.2l0.1,0.1V3.2L3.6,3.2z M3.9,4.2L4,4.5l0.1,0.4l0.2-0.2V4.6V4.3L4.2,4.2H4.1H3.9z M3.9,5.2v0.1L4,5.4l0.2-0.2H4.1H3.9z
			 M4.1,3.2V3V2.9H4L4,2.9V3L4,3.1L4.1,3.2z M4,5.7L4,5.7l0.1-0.1H4V5.7z M4.7,3.8h0.2L5.2,4L5.1,4.1H5L4.9,4.4h0.2l0.2-0.2V4.1
			L4.9,3.7L5,3.6V3.4H4.9L4.8,3.6L4.7,3.8z M4.8,4.7v0.3l0.1,0.1H4.8v0.1v0.1v0.1L4.8,5.6l0.2,0.1H5l0.1-0.2L5,5.2L5.3,5L5.1,4.9
			V4.7H5L4.8,4.7z M4.8,2.6v0.1H5l0-0.1H4.8z M4.8,6.1L4.8,6.1L4.8,6.1l0.1-0.2H4.8L4.8,6L4.8,6.1z M5.2,3.3V3H5.1L5,2.9L4.9,3v0.1
			L5.2,3.3L5.2,3.3z M5.3,4.7h0.1V4.6L5.3,4.7z M5.5,7.4L5.5,7.4l0.1-0.1L5.5,7.2L5.5,7.4z M5.9,3.7H5.7l0.1,0.1V4v0.4l0.1,0.1h0.2
			V4V4H5.9L5.9,3.7l0.1,0.1V3.6l0.1-0.3l0-0.1L6.1,3H6L5.9,3.4L5.9,3.7L5.9,3.7z M5.9,2.5v0.1l0.2,0.1h0.1V2.5H6H5.9z M6,5.8H5.8
			v0.1L5.9,6L6,5.8L6,5.8L6,5.8z M5.9,6.7L5.9,6.7l0.2-0.1H5.9L5.9,6.7z M6,6.5V6.4L5.9,6.2v0.1L6,6.5z M5.9,9.1l0.1,0.1H6h0.1V9.1
			H6L5.9,9.1z M5.9,17.3H6v-0.1H6L5.9,17.3z M6,5h0.1l0.2,0.2L6.3,5L6.2,4.9L6.2,5V4.9H6.1H5.9L6,5L6,5z M6,8.9h0.1V8.7H6V8.9z
			 M6,17.8L6,18h0.2h0.1l0.1-0.1l-0.1-0.1H6.1L6,17.8z M6,15.6L6,15.7l0.3,0.2v-0.1l-0.1-0.1H6.2v-0.1H6.1L6,15.6z M6.2,5.4L6.2,5.4
			L6,5.2l0.1,0.2L6.2,5.4z M6.1,16.3L6.1,16.3l0.1-0.1L6.1,16.3L6.1,16.3z M6.2,11L6.2,11l0.1-0.2H6.2V11L6.2,11z M6.2,11.4v0.2
			l0.1-0.1v-0.1L6.2,11.4z M6.2,4.7L6.2,4.7l0.1-0.1H6.2V4.7z M6.4,5.8h0.1l0.1-0.2L6.5,5.7L6.4,5.8z M6.7,3.3L6.6,3.5h0.1L7,3.4
			V2.9H6.9L6.7,3.2l0.1,0.2L6.7,3.3L6.7,3.3z M6.9,5.2H6.7L6.6,5.3h0.2l0.1,0.1v0.3v0.1L7,5.8L6.9,5.2L6.9,5.2z M6.7,3L6.7,3l0-0.1
			L6.7,3z M7.2,5.3V5.1L7.1,5l0.1-0.2V4.7H7.1V4.6V4.3h0.1l0.1,0.1L7.1,4.5h0.1V4.4V4.1V4l0.1-0.1L7.2,3.9V3.6L7.1,3.5L6.9,3.6v0.3
			L6.9,4.1L6.8,4.2l0.2,0.5L6.8,4.8v0.1h0.1l0.1,0.3L7,5.3L7.2,5.3z M6.7,6.4h0.2V6.3l0.2,0.1V6.2H6.8L6.7,6.4L6.7,6.4z M6.9,12
			L6.7,12h0.1l-0.1,0.2l0.1,0.1l0.1,0.1L7,12.3L7.2,12H7.1v-0.1v-0.1l0.1-0.1l-0.3,0.1l-0.1,0.2L6.9,12z M6.7,14.7L6.7,14.7
			L6.7,14.7L6.7,14.7L6.7,14.7z M7,10.7l-0.1-0.2l-0.2-0.1l0.1,0.2l0.1,0.1L7,10.7z M6.8,7.4l0.1,0.2v0.1H7l0.2,0.1L7.1,7.4l0.1-0.2
			H7.1H6.9L6.8,7.4z M6.8,8.4h0.2V8.3H6.8L6.8,8.4L6.8,8.4z M6.8,9.5L6.8,9.5l0.3,0V9.1H6.9v0.1L6.8,9.5L6.8,9.5z M6.8,6.8h0.3V6.6
			H6.9L6.8,6.8L6.8,6.8z M7,11.3v-0.1l-0.1-0.1l-0.2-0.1l0.1,0.2L7,11.3z M6.8,13.9h0.1v-0.1L6.8,13.9z M6.9,16.8h0.4v-0.1l0,0
			l-0.3-0.1v0.1L6.9,16.8z M6.9,16.2l0.2,0.1h0.1v-0.1L7,16v-0.1H6.9L6.8,16v0.1L6.9,16.2z M6.9,13.6H7l0.2-0.2l-0.1-0.1L6.9,13
			l-0.1-0.1V13L6.9,13.6L6.9,13.6z M7,17H6.9v0.1L7,17z M7,17.7l0.1-0.3H6.9l-0.1,0.1v0.1L7,17.7z M6.9,7.9L6.9,7.9L6.9,7.9L7.1,8
			v0.1l0.1,0.1V8.1L7.2,8V7.9L6.9,7.9L6.9,7.9z M7.1,10.2L7.1,10.2L7.1,10.2L7.1,10.2z M7.1,17.2h0.1h0.1l-0.1-0.1L7.1,17.2z
			 M7.3,12.6H7.1v0.1L7.3,12.6z M7.3,7V6.9L7.2,6.8v0.1L7.3,7z M7.9,14.7v0.1H8l0.1,0.1L7.9,15H7.8v0.2v0.1v-0.1l-0.1,0.3v0.1
			l0.1,0.1v-0.1v-0.1v-0.1v0.1l0.1,0.1v-0.1v-0.1v0.2v-0.1l0.2-0.1V15l0.1-0.4v-0.1v0.1H8.1L7.9,14.7z M7.7,7.8v0.1V8l0.2,0.1v0.1
			l0.2,0.1L8.2,8V7.9L8.1,8l0.1-0.4L8.1,7.4L8,7.3v0.3v0.1L7.9,7.8L7.7,7.8z M7.7,14.1V14h0.1H7.6L7.7,14.1L7.7,14.1z M7.9,4.5
			L7.8,4.5L7.7,4.8v0.1V4.7l0.1-0.1h0.2v0.3L8,5l0.2,0L8.1,4.5V4.1H8l0,0.1v0.1L7.9,4.5z M7.8,4h0.1L7.8,3.7L8,3.6v0.1h0.1V3.6
			L7.8,3.5L7.7,3.9L7.8,4z M7.7,5.8L8.5,6l0.1-0.2h0.1l0.1,0.1L8.6,5.9L8.7,6l0.1-0.3V5.7H8.7L8.7,5.6L8.3,5.8H8H7.9L8,5.7V5.6
			L7.9,5.5H7.8L7.7,5.8L7.7,5.8z M8,16.5L8,16.5l-0.2,0.1v0.2H7.7v0.5l0.2,0.1v-0.1v-0.4v-0.1L8,16.7l-0.1-0.1L8,16.5l0.3-0.3H8.1
			v-0.1L8,16v0.1L8,16.5L8,16.5z M7.8,8.6h0.1L8,8.8l0.2-0.1L8,8.5H7.8L7.8,8.6z M7.8,18v0.3l-0.1,0.1h0.1l0.1-0.1V18H7.8z M8,13.3
			l0.1-0.1L8,13.1H7.8l0.1,0.1L8,13.3z M7.9,6.5v0.2l0.1,0.1h0.2V6.6V6.5L7.9,6.5L7.9,6.5z M7.9,9.3L7.9,9.3L8,9.4l0.1-0.1L7.9,9.3
			L7.9,9.3z M7.9,10.1v0.2H8L7.9,10.1L7.9,10.1z M7.9,14.4l0.1,0.1v-0.2H7.9L7.9,14.4z M7.9,3.4h0.2V3.3L8,3.2v0L7.9,3.4z M8,15.7
			L8,15.7L8,15.7L8,15.7z M8,9.9L8,9.9V9.8V9.9z M8,11.5h0.2v-0.1L8,11.5L8,11.5z M8,11L8,11L8,11L8,11L8,11z M8.2,15.5L8.2,15.5
			L8.2,15.5L8.2,15.5z M8.2,12v-0.1l0,0V12z M8.2,18.4v-0.2V18.4L8.2,18.4z M8.4,6.5v0.1h0.2l0.1-0.1L8.5,6.5L8.4,6.5z M8.5,4.6
			L8.5,4.6V4.4H8.4v0.1v0.1L8.5,4.6z M8.4,5.4L8.4,5.4V5.2V5.4z M8.7,13.9h0.1l0.1-0.1v-0.1H8.8l-0.1,0.1L8.7,13.9z M8.8,9.3v0.1
			L8.7,9.7v0.1l0.2-0.2L9,9.3L8.8,9.3z M8.9,11.3H8.8l-0.1,0.2h0.2v-0.1L8.9,11.3l0-0.2l-0.1-0.1v0.1L8.9,11.3L8.9,11.3z M8.8,12.1
			v-0.2v-0.1l-0.1,0.1L8.8,12.1L8.8,12.1z M8.7,10L8.7,10L8.9,10L8.7,10l0-0.1L8.7,10z M8.7,7.3v0.1h0.1V7.3H8.7L8.7,7.3z M8.7,4.7
			h0.2L8.9,5L8.7,5.1v0.1l0.1,0.2l0.1,0.1l0.1-0.2l0.1,0l0.1,0.1h0.1V5L9,4.7l0,0V4.6L8.9,4.5L8.8,4.6v0.1L8.7,4.7z M8.7,6.6h0.1
			V6.5h0.1L9,6.4h0.1l0.1-0.1L9,6.2V6.1H8.9L8.7,6.6L8.7,6.6z M8.7,7L8.7,7h0.4V6.9h0.1L9.1,6.7H9v0.1L8.9,6.9L8.7,7z M9,13.2H8.8
			v0.1h0.1L9,13.2z M8.8,3.2v0.7H9l0.2-0.2H9.1L9,3.5V3.4l0.1-0.2L9,3.1L8.9,3.1L8.8,3.2z M8.8,8L9,8V7.8H8.9L8.8,8z M8.9,12.8
			L9,12.7H8.8L8.9,12.8z M9,17.3h0.1L9,17.1v-0.1L8.9,17L9,17.3L9,17.3z M9,5.8h0.2l0.2-0.1V5.6L9.3,5.5H9.1L9,5.8L9,5.8z M9,10.3
			L9,10.3l0-0.1L9,10.3z M9,12.3L9,12.3L9,12.2H9V12.3z M9,9.8h0.1V9.7L9,9.8L9,9.8z M9,7.7h0.1V7.6H8.9L9,7.7z M9,13.7h0.2H9
			L9,13.7z M9,13.9h0.1v-0.1L9,13.9L9,13.9z M9,4.2L9,4.4v0.1h0.3l0.1,0.1V4.5V4.3l0.1-0.1H9.3L9.2,4.3L9,4.2z M9.2,13.5v-0.1H9.1
			L9.2,13.5z M9.2,7.3L9.2,7.3l0.1-0.1V7.1H9.2V7.3L9.2,7.3z M9.2,4.1L9.3,4L9.2,4.1L9.2,4.1z M9.3,13.1L9.3,13.1L9.3,13.1L9.3,13.1
			z M9.3,3.7l0.2,0.2h0.1l0-0.1L9.5,3.6L9.3,3.7z M9.3,6.1l0.2,0.1V6L9.3,6.1L9.3,6.1z M9.3,13.5v-0.1h0.1L9.3,13.5z M9.5,4.9h0.2
			L9.6,4.8V4.7v0.1L9.5,4.9z M9.8,5.3l0.1-0.1L9.8,5.1L9.8,5.3L9.8,5.3z M9.9,4.2V4.1L9.8,4v0.1L9.9,4.2z M9.9,4.6L9.9,4.6L9.9,4.6
			L9.9,4.6L9.9,4.6z M10.2,4.2h0.1V4.1L10.2,4V4.2z M11.1,4.9L11.1,4.9l0.2-0.1V4.7L11,4.6L11.1,4.9L11.1,4.9z M11.2,2.9L11.2,2.9
			V2.7V2.9z M11.2,3.6L11.2,3.6V3.4V3.6z M12.9,4.9H13V5h0.1L13,4.7h0.1l0.1-0.1L13,4.7l-0.1,0.2L12.9,4.9z M13.1,3.6V3.4H13v0.1
			L13.1,3.6z M13.1,4.3L13.1,4.3L13.1,4.3L13.1,4.3L13.1,4.3z M13.9,4.8l0.2-0.1l-0.2-0.1L13.9,4.8L13.9,4.8z M14,5.3h0.1H14L14,5.3
			z M14.1,6.3L14.1,6.3l0-0.2h-0.1L14.1,6.3z"/>
		<path class="st0" d="M23.2,10.1v0.1l0.2,0.2l0.3-0.1l0,0.1v0.2H24v0.1h0.1l0.3,0.1l0.4,0.3h0.1v0.2v0.1l0.3,0l0.2,0.2l0.4,0.3
			l0.2,0.1l-0.1,0.2L26,12l0.3,0.4l0.4,0.4l0.1,0.2l0.4,0.6v0.2V14l0.1,0.1h0.1l0.1,0.5l0.2,0.3v0.3l0.2,0.4v0.2l0.1,1l0.1,0.2
			L28,17.4l0.1,0.4v0.2l0.1,0.2v0.3v0.1L28,18.6l0.1,0.2v0.5L28,19.8v0.4l-0.1,0.1l-0.1,0.2V21l-0.1,0.1l-0.1,0.2l-0.1,0.1v0.3
			l-0.3,0.6l-0.1,0.4l-0.2,0.2l-0.1,0.2v0.2h-0.2l-0.2,0.4l-0.2,0.1L25.8,24v0.2l-0.2,0.1L24.8,25l-0.6,0.2L24,25.3l-0.2-0.1
			l-0.1,0.1l-0.2,0.2l-0.8,0.3l-0.1,0.1h-0.1l-0.7,0.1l-0.2,0L21.4,26l-0.7,0.1h-0.1L20.5,26v-0.1h-0.1l-0.1,0.2L20.1,26L20,26.1
			h-0.1L19.4,26l-0.1,0.1L19.2,26l-0.1-0.1l-0.2,0.2h-0.1l-0.5-0.3L18.1,26l-0.6,0.1l-0.1-0.2l-0.1,0h-0.1v0.2L17.1,26h-0.2
			l-0.1,0.1h-0.1L16.5,26L16.4,26h-0.6l-0.2,0.1l-0.2-0.1L15.3,26l-0.1,0.1H15L14.6,26l-0.9,0.1h-0.4L13.2,26v-0.1h-0.1L13,25.8
			v-0.2v-0.4l-0.1-0.2l0.1-0.8L13,23.6l0.1-0.5L13,22.9l0.1-0.7v-0.3v-0.1l0.1-0.1L13,21.5L13,21v-0.5h0.2l0.1,0.1l0.1-0.1v-0.1
			h-0.1L13,19.9l0.1-0.2v-0.6l0.1-0.1L13,18.8v-0.3v-0.9h0.2l-0.2-0.4l0.1-0.3v-0.2l-0.2-0.9l0.1-0.4L12.8,15v-0.3l0.1-0.1l-0.1-0.5
			v-0.3l0.1-0.2l-0.1-0.2v-0.5l0.1-0.4l-0.1-0.3v-0.8v-0.2l0.1-0.2l-0.1-0.5l0.1-0.5L13,9.7l0.8-0.2l0.3,0.1l0.2-0.1h0.3h0.8
			l0.5-0.1l0.2,0.2l0.1-0.1h0.4l0.2-0.1l0.6,0.1l0.2-0.1L18,9.7l0.5-0.1h0.3L19,9.5l0.2,0.1l0.1-0.1H20l0.1-0.1l0.2,0.1l0.2-0.1
			l0.3,0.1h0.5l0.2,0.1h0.7l0.4,0.1l0.2,0.1L23,9.9h0.1L23.2,10.1z M12.9,14.9h0.2l-0.1-0.1H13L12.9,14.9z M13.1,25.6v0.1l0.1,0.1
			l0.2-0.1l0.1-0.1l-0.1-0.1h-0.2L13.1,25.6z M13.1,13h0.3v-0.2h-0.1L13.1,13L13.1,13z M13.2,12.7v-0.2l-0.1-0.1L13.2,12.7
			L13.2,12.7z M13.2,13.3l0.1-0.1v-0.1l-0.1,0.1L13.2,13.3z M13.3,18h0.1l0.1-0.2l-0.2-0.1v-0.1l0.1-0.2l-0.1-0.1l-0.1,0.1l-0.1,0.2
			L13.3,18L13.3,18z M13.4,10.6l-0.1-0.1L13.4,10.6L13.4,10.6z M13.3,13.8l0.2-0.2l-0.1-0.1h-0.1v0.1L13.3,13.8z M13.5,14.6
			l-0.1-0.3h-0.1v0.2l0.1,0.1L13.5,14.6z M13.3,19.7L13.3,19.7h0.2v-0.1L13.3,19.7L13.3,19.7z M13.3,20.7h0.1V21h0.1l0.1-0.1
			l-0.1-0.2v-0.1h-0.2v0.1L13.3,20.7z M13.3,15.5l0.1-0.1l-0.1-0.1L13.3,15.5L13.3,15.5z M13.3,25.1h0.1v-0.2L13.3,25v-0.1V25V25.1z
			 M13.3,11.6l0.2,0.1l-0.1-0.1l0.1-0.3h-0.1l-0.1,0.2L13.3,11.6z M13.3,12.5h0.1v-0.1L13.3,12.5L13.3,12.5z M13.4,14.1L13.4,14.1
			L13.4,14.1L13.4,14.1L13.4,14.1z M13.4,18.1L13.4,18.1l-0.1,0.2l0.1,0.1V18.1L13.4,18.1z M13.5,18.8h-0.1v0.1L13.5,18.8z
			 M13.4,16.6l0.2-0.1v-0.1l-0.1-0.1l-0.1,0.1L13.4,16.6z M13.4,21.9v-0.1l-0.1,0L13.4,21.9L13.4,21.9z M14,13.1v0.2l0.4-0.1h0.1V13
			l-0.1-0.1h-0.2v0.2h-0.1L14,13.1z M14,19.1L14,19.1L14,19h-0.1L14,19.1z M14,22.6l0.3,0.2v-0.3l-0.1-0.1L14,22.6L14,22.6z
			 M14,16.3h0.2v-0.1l0,0v0.1l0,0v0.1L14,16.3z M14,16.7v0.1l0.1,0.1l0.1-0.1l0.3-0.2v-0.1h-0.1l-0.2,0.2L14,16.7z M14.2,19.5h-0.1
			v0.2l0.1,0.1L14.2,19.5l0.1-0.1h0.1l0.1-0.1l-0.2-0.1L14.2,19.5L14.2,19.5z M14.2,23.9L14.2,23.9l-0.1-0.1L14.2,23.9L14.2,23.9z
			 M14.2,14.9V15l0.1,0.2l0.2-0.1l0.2-0.2v-0.1v-0.1l-0.2-0.1l-0.1,0.2L14.2,14.9z M14.5,20.9l-0.2,0.1v0.3l0.1,0.3l-0.2-0.1v0.1
			l0.3,0.1h0.1v-0.4l0.1-0.6l-0.2-0.2h-0.1l0.1,0.1v0.1L14.5,20.9z M14.4,23.1h-0.2v0.1L14.4,23.1z M14.2,20.6L14.2,20.6v-0.2h-0.1
			v0.1L14.2,20.6z M14.2,10.9l0.1,0.1l0.1-0.1l-0.2-0.1V10.9z M14.3,17.1l0.1,0.5h-0.1l-0.1,0.2l0.2,0.1h0.1v-0.1v-0.5v-0.1h-0.1
			L14.3,17.1z M14.2,18.6L14.2,18.6l0.1,0.2h-0.1V19h0.2l0.1-0.1v-0.1l-0.1-0.1l-0.1-0.1L14.2,18.6z M14.4,12.8v-0.1v-0.1l-0.1-0.1
			h-0.1v0.1L14.4,12.8L14.4,12.8z M14.5,14.1v-0.3h-0.2l0.1,0.3v0.2l-0.1,0.2l0.1,0.1v-0.2l0.1,0.1h0.3v-0.3v-0.2l0.1,0.1v-0.3
			l-0.1-0.1h-0.1l0.1,0.3L14.5,14.1z M14.5,18.5v-0.1l-0.1-0.1l-0.2-0.2v0.2l0.2,0.1L14.5,18.5z M14.4,15.4l0.1,0.1v0.2h-0.1
			l-0.1,0.1l0.1,0.1h0.1l0.1-0.1h0.1l0.1-0.3l-0.1-0.2L14.4,15.4z M14.4,11.9l0.1-0.1l-0.1-0.2L14.4,11.9L14.4,11.9z M14.3,23.8
			l0.3-0.1v-0.3l0.1-0.1l-0.2-0.1l0.1-0.1L14.5,23L14.3,23.8L14.3,23.8z M14.4,12.1L14.3,12L14.4,12.1L14.4,12.1z M14.4,16.2
			l0.1,0.1l0.2-0.1v-0.3h-0.4v0.1L14.4,16.2z M14.5,22.4v-0.2h-0.2v0.1L14.5,22.4z M14.5,20.2v-0.3h-0.1V20v0.2L14.5,20.2z
			 M14.4,25.1L14.4,25.1l0.1-0.1h-0.1L14.4,25.1L14.4,25.1z M14.4,25.6L14.4,25.6L14.4,25.6L14.4,25.6L14.4,25.6z M14.5,24.8
			L14.5,24.8l0.1-0.2l-0.1-0.1h-0.1v0.1L14.5,24.8z M14.5,11.3L14.5,11.3l0.1-0.2h-0.1v0.1L14.5,11.3z M14.5,13.5v-0.1l-0.1-0.1
			l-0.1,0.1L14.5,13.5z M14.5,24.1V24l-0.1-0.1L14.5,24.1L14.5,24.1z M14.5,12.6h0.1l-0.1-0.1L14.5,12.6z M14.9,25.9H15H15H14.9
			L14.9,25.9z M15.2,11.8l-0.1-0.1L15,11.8v0.1L15.2,11.8L15.2,11.8z M15.1,14.1h0.1l0.1,0.1l-0.2,0.3h0.1v0.1v0.1l0.1,0.1l0.1-0.1
			l0.1-0.5h-0.1l0.1-0.3l-0.1-0.2h-0.1h-0.1v-0.1h-0.1v0.2v0.1L15,14L15.1,14.1L15.1,14.1z M15.1,14.8L15.1,14.8v-0.1V14.8z
			 M15.6,16.9l-0.1-0.3v-0.1l-0.1,0.1l-0.2,0.2h-0.1v0.1l0.1,0.4v0.1l-0.1,0.1l0.1,0.1l0.1,0.1h0.2v-0.1l-0.1-0.2l0.2-0.1L15.6,16.9
			L15.6,16.9z M15.1,21.4h0.1l-0.1-0.1v-0.1h-0.1v0.1L15.1,21.4z M15.1,23.1v0.2h0.1L15.1,23.1l0.2-0.1L15.1,23.1z M15.2,18.4
			l0.2,0.1l-0.1,0.2l0.1,0.2h0.2l0.1-0.3l-0.1-0.1v-0.1v-0.4h0.1V18h-0.1l-0.1-0.1h-0.1h-0.2l-0.1,0.1l-0.1-0.1V18.4L15.2,18.4z
			 M15.6,15.8v-0.1l-0.1-0.5v-0.3h-0.3h-0.1v0.1l0.1,0.1v0.1h0.1v0.3l0.1,0.1L15.6,15.8z M15.2,16.4h0.2l0.1-0.2V16h-0.2l-0.1,0.2
			V16.4z M15.2,18.9v-0.1v-0.1V18.9L15.2,18.9z M15.3,10.6L15.3,10.6l-0.1,0.1l0,0L15.3,10.6L15.3,10.6z M15.2,11.4v0.1v0.1h0.2
			v-0.1L15.2,11.4L15.2,11.4z M15.3,12.6l0.1,0.1L15.3,13l-0.1,0.2v0.1h0.1l0.1,0.1l0.1-0.1l-0.1-0.3l0.1-0.2l-0.1-0.1v-0.1l0.1,0.1
			v-0.1v-0.1l-0.2,0.1L15.3,12.6z M15.3,23.9l-0.1,0.2l0.1,0.3l0.2,0.2v-0.5l0.1-0.1l-0.1-0.1l-0.3-0.3v0.1L15.3,23.9L15.3,23.9z
			 M15.2,22.1v0.2l0.1,0.1h0.1v-0.6l-0.1,0.1v0.1L15.2,22.1z M15.3,11h0.1l-0.1-0.1L15.3,11z M15.3,12l0.1-0.2h-0.1L15.3,12L15.3,12
			z M15.3,14.3L15.3,14.3l0,0.2L15.3,14.3z M15.3,19.5l0.2-0.1v-0.1l-0.1-0.1L15.3,19.5L15.3,19.5z M15.3,20.2h0.2l-0.1-0.4h-0.2V20
			V20.2z M15.6,21.2v-0.4l-0.2-0.1V21l0.1,0.2H15.6z M15.4,16.7l0.1,0.1v0.1h-0.2L15.4,16.7L15.4,16.7z M15.4,21.5l0.1,0.1h0.2v-0.1
			l-0.1-0.1h-0.1L15.4,21.5z M15.5,10.6L15.5,10.6l0.1-0.1h-0.1L15.5,10.6z M15.5,24.8l0.1,0.1l-0.1,0.2h0.1l0.1-0.1l0.1-0.2
			l-0.1-0.1L15.5,24.8z M15.5,25.6l0.1,0.1h0.1l-0.1-0.2L15.5,25.6z M15.5,23.3L15.5,23.3L15.5,23.3L15.5,23.3z M15.6,14.8
			L15.6,14.8L15.6,14.8L15.6,14.8z M16.2,13.1h-0.1H16v0.1h0.1L16.2,13.1l0.1-0.2l-0.1-0.1h-0.2v0.1L16.2,13.1z M16,11.7l0.1,0.1
			l0.1-0.3h-0.1l-0.1,0.1L16,11.7z M16.1,12.1V12H16L16.1,12.1L16.1,12.1z M16,17.3v0.1l0.1,0.1l0.1-0.2h0.1v-0.1h-0.1v0.1h-0.1
			L16,17.3z M16,22.5l0.1,0.1h0.2v-0.3l-0.1,0.1L16,22.5z M16,23v0.1l0.1,0.2v0.1l0.1,0.1l0.1-0.5V23h-0.1L16,23z M16,14v0.1v0.1
			l0.2,0.1h0.1l0.1-0.3v-0.2l-0.2,0.1L16,14z M16,17.8l0.1,0.1l0.1,0.3l0.1,0.1v-0.2l0.1-0.3l-0.1-0.1h-0.1l-0.1,0.1L16,17.8z
			 M16.2,25.3L16.2,25.3v-0.2h-0.1v0.2L16.2,25.3z M16.3,13.8v-0.4h-0.2l-0.1,0.3v0.1l0.1,0.1L16.3,13.8z M16.1,15.4l0.1-0.1
			l0.1,0.1v-0.1l-0.1-0.1h-0.1L16.1,15.4z M16.2,15.2V15l-0.1,0.1L16.2,15.2z M16.2,11.1l0.1-0.2h-0.2L16.2,11.1L16.2,11.1z
			 M16.2,19.3l0.2,0l0.1-0.3h-0.1L16.2,19.3L16.2,19.3z M16.2,22.1h0.2v-0.2h-0.1L16.2,22.1L16.2,22.1z M16.2,19.6L16.2,19.6v0.2
			l0.1,0.2h0.1v-0.1l-0.1-0.2L16.2,19.6L16.2,19.6z M16.2,21.2h0.1V21l-0.1-0.1L16.2,21.2L16.2,21.2z M16.3,12.1L16.3,12.1l0-0.2
			h-0.1L16.3,12.1L16.3,12.1z M16.2,16L16.2,16l0.1-0.1h-0.1L16.2,16z M16.2,19L16.2,19L16.2,19L16.2,19L16.2,19z M16.3,18.8h0.1
			H16.3L16.3,18.8z M16.5,21.7L16.5,21.7l-0.2-0.1l0.1,0.1L16.5,21.7z M16.3,24.4L16.3,24.4l0.1-0.1h-0.1L16.3,24.4z M16.5,11.7
			v-0.2h-0.1v0.2L16.5,11.7z M20.9,13.9L20.8,14h-0.2l-0.2-0.1l-0.1-0.1L20,13.9l-0.5-0.1H19l-0.4,0.1l-0.1-0.1h-0.2l-0.6,0.1h-0.1
			l-0.4,0.4L17,14.4v0.5l-0.1,1.3l0.1,0.6l-0.1,0.3l0.1,0.2v1l0.1,0.4L17,19l0.1,0.5L17,20.3v0.3l0.1,0.2L17,20.9v0.3l-0.1,0.1v0.2
			l0.1,0.2l0.2,0.2l0.2,0.1l0.3,0.2l0.5-0.1l0.2,0.1l0.3-0.1l0.8,0.1l0.1-0.1h0.3l0.2,0.1l0.5-0.2v0.1l0.1,0.1l0.1-0.3h0.3l0.3-0.1
			l0.6-0.3h0.4l0.3-0.4l0.5-0.4v-0.1l0.3-0.4v-0.2l0.2-0.1l-0.1-0.2l0.2-0.3v-0.7l0.1-0.2v-0.5l0.1-0.4l-0.1-0.2v-0.5l0-0.2l0-0.3
			l-0.1-0.2v-0.2l-0.1-0.1L23.3,16l-0.1-0.8H23l-0.2-0.2l-0.4-0.4l-0.1-0.3h-0.2l0-0.1H22l-0.3-0.1l-0.4-0.3l-0.2-0.1v0.1v0.1H21
			L20.9,13.9z M17.3,11.4h-0.1l0-0.1h-0.1v0.2L17.3,11.4L17.3,11.4l0.1-0.3V11l-0.1,0.1L17.3,11.4L17.3,11.4z M17.2,22.8v-0.1
			l-0.1-0.1v0.1L17.2,22.8z M17.3,23h0.1H17.3L17.3,23z M17.3,24.6L17.3,24.6l0-0.1L17.3,24.6z M17.5,12v-0.1h-0.2l0.1,0.1L17.5,12z
			 M17.3,12.7l0.1-0.1l0.1-0.2l-0.1-0.2h-0.1v0.4L17.3,12.7z M17.3,13.2l0.1-0.1V13l-0.1,0.1L17.3,13.2z M17.4,25h0.1v-0.1l-0.1-0.1
			L17.4,25z M17.4,25.5L17.4,25.5v-0.2V25.5L17.4,25.5z M17.9,11.5h0.2L18,11.4v-0.2h-0.1L17.9,11.5z M18,12l0,0.1L18,12.4l0,0.1
			l0.1,0.1v-0.1l0,0h0.1v-0.1l0.2-0.3l-0.2-0.1L18.1,12L18,12z M18.1,13.4h0.2v-0.1v-0.1l-0.1,0L18.1,13.4L18.1,13.4z M18.5,23.7
			v-0.1l-0.3-0.1v0.1L18.5,23.7L18.5,23.7z M18.3,11.6L18.3,11.6L18.3,11.6L18.3,11.6L18.3,11.6L18.3,11.6z M18.3,11.1L18.3,11.1
			L18.3,11.1L18.3,11.1L18.3,11.1z M18.3,22.7h0.2H18.3L18.3,22.7z M18.4,25.4l-0.1-0.1v0.1L18.4,25.4z M18.4,11.4L18.4,11.4
			L18.4,11.4L18.4,11.4L18.4,11.4z M18.9,12.6H19v-0.1l-0.1-0.1l-0.1,0.1V12.6z M18.9,12.1H19V12L18.9,12L18.9,12.1z M19,11.9
			l0.1,0.1h0.1l0.1-0.1H19L19,11.9z M19,23v-0.2l-0.1,0.1L19,23z M19,11.2h0.2v-0.2h-0.1L19,11.2z M19,10.2v0.3l0.1,0.1h0.1v-0.1
			v-0.1v-0.1l0-0.1L19,10.2z M19.4,11.2V11l-0.1-0.1V11L19.4,11.2L19.4,11.2z M19.3,23.6l0.1-0.1l0.1-0.2h-0.1l-0.1,0.1v0.1
			L19.3,23.6z M19.3,22.9L19.3,22.9L19.3,22.9L19.3,22.9L19.3,22.9z M19.4,25.7v-0.1h-0.1L19.4,25.7z M19.4,11.7h0.1v-0.1L19.4,11.7
			L19.4,11.7L19.4,11.7z M19.9,11.7L19.9,11.7l0.2-0.1v-0.1L20,11.2v0.1l0.1,0.2L19.9,11.7z M19.9,12.1h0.2l0.1-0.1h-0.1L19.9,12.1z
			 M19.9,12.5h0.2l0.1-0.1l0.1-0.2h-0.1l0,0l-0.1,0.1L19.9,12.5z M19.9,13.7L19.9,13.7L19.9,13.7L19.9,13.7L19.9,13.7z M20.2,22.7
			L20.2,22.7L20.2,22.7L20.2,22.7L20.2,22.7z M20.2,11.1V11l-0.1-0.1v0.1L20.2,11.1z M20.3,13l-0.1-0.1v-0.3H20v0.3l0.1,0.2h0.1
			L20.3,13z M20.2,10.6v-0.1h-0.1L20.2,10.6z M20.2,24.8h0.3v-0.2l-0.2-0.1l-0.1,0.2V24.8z M20.6,25.2v-0.1h-0.1L20.6,25.2
			L20.6,25.2z M20.6,22.9h-0.1H20.6L20.6,22.9z M21.1,11v-0.2L21,10.8l-0.1,0.1L21.1,11z M21.1,25.2v-0.1L21,25L21.1,25.2L21.1,25.2
			z M21,11.5L21,11.5l0.1-0.1L21,11.5L21,11.5z M21,12.6l0.1,0.1L21,12.9l0.1,0.1h0.1v-0.1l0.2-0.2h-0.1v-0.1L21,12.6L21,12.6z
			 M21,23.8L21,23.8l0.1,0.2l0.1,0.1l0.1-0.2v-0.1h-0.1L21,23.8z M21.1,12.1v0.1l0.2,0.2l0-0.1v0.1v-0.2l0.1-0.1L21.3,12L21.2,12
			L21.1,12.1z M21.2,23.4l0.1-0.2v-0.1L21.1,23v0.3L21.2,23.4z M21.2,24.2L21.2,24.2L21.2,24.2L21.2,24.2L21.2,24.2L21.2,24.2z
			 M21.3,25.2v-0.1h0.1V25h-0.1v0.1V25.2L21.3,25.2z M21.3,11.7l0.1-0.1v-0.1l-0.1-0.3l0,0l-0.1,0.3V11.7L21.3,11.7z M22,11.2h0.1
			v0.1h0.1l0.1-0.2l-0.1,0L22,11.1L22,11.2z M22,12.3v0.1v0.7v0.1l0.1-0.1l0.1-0.5v-0.4L22,12.3L22,12.3z M22.1,12.1h0.2v-0.2
			L22.2,12L22.1,12.1z M22.3,14.1L22.3,14.1l0-0.3h-0.2v0.3L22.3,14.1z M22.2,23.4h0.2v-0.1l-0.1-0.2l0.1-0.1l-0.1-0.1h-0.2l0.1,0.4
			L22.2,23.4z M22.9,23l0.1,0.1l0.1,0.4h0.1v-0.1l0.1-0.2l-0.1-0.1V23l0.1-0.1L23.1,23L23,23L22.9,23z M22.9,12.1h0.2l0.1-0.2v-0.1
			h-0.1L22.9,12L22.9,12.1z M23,22.3l0.1,0.1l0.2,0.2v-0.1v-0.2l-0.2-0.1L23,22.2L23,22.3z M23,11.4l0.2,0.2h0.1v-0.3l0-0.1h-0.1
			v0.1L23,11.4z M23,11.1l0.2,0.1v-0.3L23.1,11L23,11.1z M23,24.6l0.2-0.1v-0.1v-0.3V24l0,0l0.1,0.1l-0.1,0.3L23,24.6z M23.2,13.6
			L23,13.5v0.1h0.1L23.2,13.6z M23,14.5l0.1-0.1v-0.1h0v0.1L23,14.5z M23.2,13.3v-0.1l0,0V13.3L23.2,13.3z M23.9,21.5v0.3l0.1,0.2
			H24l0-0.1l0-0.2v-0.1l0.1-0.2v-0.1H24l-0.1,0.1L23.9,21.5z M23.9,22.5h0.3v-0.2H24l-0.1,0.1L23.9,22.5z M24.2,20.1L24.2,20.1
			L24.2,20.1L24.2,20.1L24.2,20.1L24.2,20.1z M24,20.9l0.1,0.1h0.2v-0.2h-0.2L24,20.9z M24,20.5L24,20.5l0.1,0.1v-0.2L24,20.5z
			 M24.2,13.4v-0.1v-0.1V13.4L24.2,13.4z M24.1,15.4l0.1-0.1l-0.1-0.2h0.1V15h-0.1h-0.1L24.1,15.4L24.1,15.4z M24.1,14.1l0.1,0.1
			l0.1-0.1H24.1L24.1,14.1z M24.2,16.8v-0.2h0L24.2,16.8L24.2,16.8z M24.2,23.1L24.2,23.1l0.1-0.2v-0.3v-0.1l-0.1,0v0.1V23V23.1z
			 M24.3,13.8v-0.1h-0.1v0.1L24.3,13.8z M24.3,24.1h-0.2l0.1,0.1L24.3,24.1z M24.5,24.9h-0.2V25h0.1L24.5,24.9z M24.9,13.2H25v-0.1
			L24.8,13L24.9,13.2L24.9,13.2z M24.9,16.4v-0.2h-0.1L24.9,16.4L24.9,16.4L24.9,16.4z M24.9,17L24.9,17l-0.1,0.1v0.2H25l0.2,0.2
			v0.2l-0.1,0.1v-0.1H25v0.2H25V18l0,0.1h0.1V18h0.1v-0.1v-0.1l0.1-0.1l-0.2-0.8h-0.3L24.9,17L24.9,17z M25,14.1L25,14.1L25,14.1
			L25,14.1z M24.9,14.7l0.1,0.1h0.3v-0.3v-0.3h-0.1v0.2L24.9,14.7L24.9,14.7z M25,16.6v-0.1h-0.1L25,16.6L25,16.6z M24.9,19.6h0.1
			v-0.2l0,0.1L24.9,19.6z M25.1,13.7L25.1,13.7l0.1-0.3h-0.1h-0.1L25,13.6v0.1H25L25.1,13.7z M25.1,20L25.1,20L25,20.1v0.2l0.3-0.1
			v-0.1V20v-0.1l0.1-0.2l-0.1-0.1L25,19.8L25.1,20z M25,20.4l0.1,0.2v0.1H25v0.2l0.2-0.2l0.2-0.4v-0.1l-0.2,0.1L25,20.4z M25.1,21.5
			l0.1,0.2H25l0.1,0.3l0.1,0.1l0.1-0.1v-0.1l-0.1-0.2v-0.4v-0.1l-0.1,0.1L25.1,21.5z M25,22.3v0.2l0.1,0.1l0.1-0.3l-0.1-0.1L25,22.3
			z M25,23h0.2v-0.1l-0.1-0.1L25,22.9L25,23z M25,11.5h0.2l-0.1-0.2L25,11.5z M25.1,18.5H25H25.1L25.1,18.5z M25.2,17.2L25.2,17.2
			l-0.1,0.1L25.2,17.2L25.2,17.2z M25,19l0.2,0.2l0.2-0.2v-0.1l-0.1-0.1L25,19L25,19z M25,15.3L25,15.3l0.1,0.1v-0.1H25L25,15.3z
			 M25.2,18.5l0.1-0.1v-0.1l0,0l-0.1-0.1h-0.1l0.1,0.1V18.5z M25.1,16.1l0.1-0.1l0.1-0.1v-0.2h0v0.2L25.1,16.1z M25.1,23.2v0.1h0.1
			l0.1-0.2L25.1,23.2z M25.2,16.5v0.2h0.1v-0.2H25.2z M25.5,17.1v-0.2h-0.1L25.5,17.1L25.5,17.1z M25.8,17.1L25.8,17.1L25.8,17.1
			L25.8,17.1z M25.8,20.2v0.2v0.1H26v0.3l0.1,0.5L26,21.4v0.1l0.1,0.1l0.2-0.1v-0.1v-0.5l-0.2-0.5v-0.2l0.1-0.2v-0.1l-0.1-0.1h0
			l-0.1-0.4v-0.3h-0.3h-0.1l0.2,0.2l-0.1,0.2l-0.1,0.1l0.2,0.2h0.1l-0.3,0.5L25.8,20.2z M26.1,22.4h-0.1v0.1L26.1,22.4z M26.2,16
			v-0.1H26V16h0.1H26.2z M26,16.5h0.1v-0.1L26,16.5z M26.2,19l0.1-0.1l-0.1-0.1v-0.1l0.1-0.5V18l-0.2-0.1L26,18.1v0.2v0.4L26.2,19
			L26.2,19z M26,21.9L26,21.9l0.1-0.2H26L26,21.9z M26,14.1h0.1l0-0.1L26,14.1L26,14.1z M26,13.8h0.2l0-0.2h-0.1L26,13.8z
			 M26.3,14.5L26.3,14.5l-0.2-0.1v0.1h0.1L26.3,14.5z M26.2,15.6h0.1v-0.2h-0.1L26.2,15.6z M26.2,16.3L26.2,16.3l0.1-0.1h-0.1V16.3z
			 M26.2,17.7h0.1v-0.2h-0.1L26.2,17.7L26.2,17.7z M26.3,17.3l0.1-0.2h-0.1L26.3,17.3L26.3,17.3z M27,15.6v-0.1l-0.1-0.1L27,15.6
			L27,15.6z M27.2,18.2L27.1,18h0.2v-0.2H27l-0.1,0.5v0.4H27l0.1-0.2L27.2,18.2z M27.2,19.4l-0.1-0.5L27,18.6v0.3v0.4L27.2,19.4
			L27.2,19.4z M27,16.9l0.1,0.3h0.1l0.2-0.2v-0.3l-0.2,0.1L27,16.9z M27.1,16.6v-0.2V16.6L27.1,16.6z M27.3,18.4L27.3,18.4l-0.2-0.1
			L27.3,18.4L27.3,18.4z M27.8,20.2L27.8,20.2L27.8,20.2L27.8,20.2z"/>
	</g>
</g>
</svg>
